# Wavefront OBJ exported by MilkShape 3D

mtllib flame.mtl

v -0.712490 -0.068537 -0.560650
v -0.010552 -0.189707 0.004756
v -0.781126 -0.008414 -0.464240
v -0.126969 -0.050036 0.158625
v -0.748045 0.088868 -0.500614
v -0.072629 0.175955 0.107847
v -0.658977 0.088868 -0.619504
v 0.077379 0.175955 -0.077397
v -0.637011 -0.008414 -0.656609
v 0.115749 -0.050036 -0.141106
# 10 vertices

vt 0.007813 0.159186
vt 0.007813 0.960938
vt 0.203126 0.159186
vt 0.203126 0.960938
vt 0.398439 0.960938
vt 0.398439 0.159186
vt 0.593752 0.159186
vt 0.593752 0.960938
vt 0.789066 0.960938
vt 0.789066 0.159186
vt 0.984379 0.159186
vt 0.984379 0.960938
# 12 texture coordinates

vn 0.045999 -0.970184 -0.237963
vn -0.207554 -0.976227 0.062460
vn -0.685347 -0.303891 0.661778
vn -0.666803 -0.305109 0.679913
vn -0.427711 0.827055 0.364752
vn -0.412788 0.846148 0.337106
vn 0.279150 0.820785 -0.498385
vn 0.286621 0.805469 -0.518718
vn 0.512937 -0.320535 -0.796337
vn 0.518558 -0.339732 -0.784653
# 10 normals

g Cylinder03
usemtl Flame
s 1
f 1/1/1 2/2/2 3/3/3
f 2/2/2 4/4/4 3/3/3
f 3/3/3 4/4/4 6/5/5
f 3/3/3 6/5/5 5/6/6
f 5/6/6 6/5/5 7/7/7
f 6/5/5 8/8/8 7/7/7
f 7/7/7 8/8/8 10/9/9
f 7/7/7 10/9/9 9/10/10
f 9/10/10 10/9/9 1/11/1
f 10/9/9 2/12/2 1/11/1
# 10 triangles in group

# 10 triangles total

