# Wavefront OBJ exported by MilkShape 3D

mtllib material.mtl

v 0.465926 -0.859059 -0.062263
v -0.592262 -0.832590 -0.412630
v 0.658006 -0.854043 -0.415760
v -0.768896 -0.832590 0.035244
v -0.592262 -0.832590 -0.412630
v -0.934629 -0.089945 0.276445
v -0.227625 0.000502 -0.103735
v -0.657611 -0.089945 -0.525963
v -0.216641 0.000502 0.159328
v -0.216641 0.000502 0.159328
v 0.556639 -0.121911 0.158688
v 0.303025 -0.009427 0.125956
v -0.216641 0.000502 0.159328
v -0.934629 -0.089945 0.276445
v 0.556639 -0.121911 0.158688
v 0.231393 -0.010333 -0.093491
v 0.556639 -0.121911 0.158688
v 0.876305 -0.117668 -0.529815
v 0.303025 -0.009427 0.125956
v -1.682642 -0.539353 -0.079188
v -1.501272 -0.219444 -0.298329
v -1.508350 -0.539353 -0.301121
v -1.675564 -0.219444 -0.076396
v -1.501272 -0.219444 -0.298329
v -0.715519 -0.315209 0.317023
v -0.719058 -0.475164 0.315628
v 0.333676 -0.497730 0.232499
v 0.337215 -0.337775 0.233895
v 0.876305 -0.117668 -0.529815
v 0.543368 -0.721742 0.153454
v 0.863034 -0.717499 -0.535049
v 0.556639 -0.121911 0.158688
v 0.543368 -0.721742 0.153454
v 0.876305 -0.117668 -0.529815
v -0.560874 -0.159923 -0.727068
v 0.773074 -0.183656 -0.730418
v 0.764226 -0.577303 -0.733907
v -0.569721 -0.553570 -0.730557
v -0.560874 -0.159923 -0.727068
v 0.764226 -0.577303 -0.733907
v -0.768896 -0.832590 0.035244
v -0.947900 -0.689776 0.271211
v -0.670882 -0.689776 -0.531197
v -0.592262 -0.832590 -0.412630
v 0.543368 -0.721742 0.153454
v -0.768896 -0.832590 0.035244
v -0.947900 -0.689776 0.271211
v -0.768896 -0.832590 0.035244
v 0.658006 -0.854043 -0.415760
v 0.863034 -0.717499 -0.535049
v 0.658006 -0.854043 -0.415760
v 0.658006 -0.854043 -0.415760
v 0.863034 -0.717499 -0.535049
v 0.863034 -0.717499 -0.535049
v -0.569721 -0.553570 -0.730557
v 0.764226 -0.577303 -0.733907
v 0.863034 -0.717499 -0.535049
v -0.670882 -0.689776 -0.531197
v -0.569721 -0.553570 -0.730557
v 0.876305 -0.117668 -0.529815
v 0.863034 -0.717499 -0.535049
v 0.764226 -0.577303 -0.733907
v 0.773074 -0.183656 -0.730418
v 0.876305 -0.117668 -0.529815
v 0.764226 -0.577303 -0.733907
v 0.773074 -0.183656 -0.730418
v -0.560874 -0.159923 -0.727068
v -0.657611 -0.089945 -0.525963
v -0.560874 -0.159923 -0.727068
v -0.569721 -0.553570 -0.730557
v -0.657611 -0.089945 -0.525963
v -0.947900 -0.689776 0.271211
v -1.682642 -0.539353 -0.079188
v -1.508350 -0.539353 -0.301121
v -0.947900 -0.689776 0.271211
v -1.508350 -0.539353 -0.301121
v -0.670882 -0.689776 -0.531197
v -1.501272 -0.219444 -0.298329
v -1.501272 -0.219444 -0.298329
v -0.657611 -0.089945 -0.525963
v -1.501272 -0.219444 -0.298329
v -1.675564 -0.219444 -0.076396
v -0.947900 -0.689776 0.271211
v -1.675564 -0.219444 -0.076396
v -1.682642 -0.539353 -0.079188
v -0.947900 -0.689776 0.271211
v -0.934629 -0.089945 0.276445
v -1.675564 -0.219444 -0.076396
v 0.543368 -0.721742 0.153454
v 0.556639 -0.121911 0.158688
v 0.543368 -0.721742 0.153454
v -0.947900 -0.689776 0.271211
v 0.543368 -0.721742 0.153454
v 0.543368 -0.721742 0.153454
v -0.934629 -0.089945 0.276445
v -0.947900 -0.689776 0.271211
v -0.947900 -0.689776 0.271211
v 0.556639 -0.121911 0.158688
v -0.934629 -0.089945 0.276445
v 0.556639 -0.121911 0.158688
# 100 vertices

vt 0.817052 0.492917
vt 0.635334 0.430848
vt 0.850037 0.430293
vt 0.605001 0.510191
vt 0.575016 0.181624
vt 0.696133 0.114389
vt 0.622472 0.039719
vt 0.698014 0.160912
vt 0.673002 0.700176
vt 0.811177 0.676262
vt 0.765860 0.698237
vt 0.544706 0.682507
vt 0.774767 0.116201
vt 0.830484 0.160799
vt 0.885246 0.039038
vt 0.787038 0.155010
vt 0.003643 0.394969
vt 0.034789 0.454042
vt 0.033573 0.394969
vt 0.004858 0.454042
vt 0.583858 0.638501
vt 0.583226 0.607253
vt 0.771337 0.602845
vt 0.771969 0.634092
vt 0.996528 0.035788
vt 0.892361 0.143793
vt 0.893093 0.034961
vt 0.995796 0.144621
vt 0.005262 0.700337
vt 0.255658 0.696508
vt 0.253998 0.632997
vt 0.003601 0.636826
vt 0.160557 0.340822
vt 0.129817 0.367193
vt 0.177388 0.367193
vt 0.190890 0.340822
vt 0.830351 0.531133
vt 0.574262 0.551994
vt 0.885246 0.409161
vt 0.405593 0.336861
vt 0.440801 0.362074
vt 0.639205 0.374525
vt 0.868278 0.373932
vt 0.621833 0.409843
vt 0.917268 0.003527
vt 0.985149 0.004079
vt 0.867561 0.003561
vt 0.639044 0.004154
vt 0.179667 0.477954
vt 0.196280 0.465032
vt 0.194760 0.392344
vt 0.448087 0.489919
vt 0.478018 0.450602
vt 0.477945 0.079976
vt 0.448087 0.119224
vt 0.542334 0.565328
vt 0.412310 0.657209
vt 0.411045 0.594713
vt 0.808806 0.559083
# 59 texture coordinates

vn 0.145096 -0.966613 0.211200
vn -0.017211 -0.999575 -0.023534
vn -0.022118 -0.999717 -0.008723
vn -0.142949 0.988407 -0.051157
vn -0.084362 0.991814 -0.095849
vn -0.041056 0.978373 -0.202732
vn -0.124151 0.992250 0.005184
vn 0.066217 0.413546 0.908072
vn 0.078956 0.494242 0.865731
vn 0.179749 0.976183 -0.121480
vn 0.332337 0.943092 -0.011351
vn 0.093213 0.985390 -0.142541
vn 0.416469 0.898361 -0.139650
vn -0.786260 0.022783 -0.617476
vn -0.552369 0.019493 -0.833372
vn -0.008965 0.080626 0.996704
vn 0.008072 -0.142466 0.989767
vn 0.143107 -0.078454 0.986593
vn 0.212258 0.053616 0.975742
vn 0.906807 -0.023735 0.420876
vn -0.002353 0.008917 -0.999958
vn -0.758619 -0.588473 -0.279638
vn -0.794138 -0.542383 -0.274163
vn -0.504930 -0.410856 -0.759106
vn -0.405773 -0.705637 -0.580883
vn 0.329464 -0.838126 0.434740
vn 0.023751 -0.847190 0.530758
vn 0.642372 -0.707806 0.293885
vn 0.559269 -0.775523 0.292888
vn -0.013272 -0.644564 -0.764435
vn -0.013595 -0.646202 -0.763046
vn -0.016039 -0.820936 -0.570794
vn -0.016282 -0.821714 -0.569668
vn 0.890963 -0.015752 -0.453802
vn 0.016176 0.946991 -0.320854
vn -0.897602 0.024075 -0.440148
vn -0.146343 -0.982535 -0.114928
vn -0.194203 -0.978667 -0.067046
vn -0.262509 0.014227 -0.964825
vn -0.146155 0.986174 -0.078102
vn -0.125573 0.987171 -0.098617
vn -0.430182 0.001640 0.902741
vn 0.337968 -0.015688 0.941027
vn 0.069907 -0.273109 0.959440
vn -0.186514 -0.004446 0.982442
vn 0.081547 0.252976 0.964030
# 46 normals

g Engines2
usemtl Engines
s 1
f 1/1/1 2/2/2 3/3/2
f 1/1/1 4/4/3 5/2/3
f 6/5/4 7/6/5 8/7/6
f 6/5/4 9/8/7 7/6/5
f 10/9/8 11/10/8 12/11/8
f 13/9/9 14/12/9 15/10/9
f 16/13/10 17/14/11 18/15/12
f 19/16/13 17/14/11 16/13/10
f 8/7/6 16/13/10 18/15/12
f 7/6/5 16/13/10 8/7/6
f 20/17/14 21/18/14 22/19/15
f 20/17/14 23/20/14 24/18/14
f 25/21/16 26/22/17 27/23/18
f 28/24/19 25/21/16 27/23/18
f 29/25/20 30/26/20 31/27/20
f 32/28/20 33/26/20 34/25/20
f 35/29/21 36/30/21 37/31/21
f 38/32/21 39/29/21 40/31/21
f 41/33/22 42/34/23 43/35/24
f 44/36/25 41/33/22 43/35/24
f 45/37/26 46/4/27 1/1/1
f 45/37/26 47/38/27 48/4/27
f 45/37/26 49/3/28 50/39/28
f 45/37/26 1/1/1 51/3/29
f 52/40/30 43/35/24 53/41/31
f 52/40/30 44/36/25 43/35/24
f 54/39/32 55/42/32 56/43/32
f 57/39/33 58/44/33 59/42/33
f 60/25/34 61/27/34 62/45/34
f 63/46/34 64/25/34 65/45/34
f 8/7/6 18/15/12 66/47/35
f 67/48/35 8/7/6 66/47/35
f 68/49/36 69/50/36 70/51/36
f 43/35/24 71/49/36 70/51/36
f 72/38/37 73/52/37 74/53/37
f 75/38/38 76/53/38 77/44/38
f 22/19/15 78/18/39 43/35/24
f 79/18/39 80/49/39 43/35/24
f 81/54/40 6/5/4 8/7/6
f 82/55/41 6/5/4 81/54/40
f 83/56/42 84/57/42 85/58/42
f 86/56/42 87/12/42 88/57/42
f 28/24/19 27/23/18 89/59/43
f 90/10/43 28/24/19 91/59/43
f 26/22/17 92/56/44 93/59/44
f 27/23/18 26/22/17 94/59/44
f 25/21/16 95/12/45 96/56/45
f 26/22/17 25/21/16 97/56/45
f 25/21/16 28/24/19 98/10/46
f 99/12/46 25/21/16 100/10/46
# 50 triangles in group

# 50 triangles total

